<svg xmlns="http://www.w3.org/2000/svg" viewBox="0 0 120 120">
  <defs>
    <linearGradient id="fire_g" x1="0%" y1="100%" x2="0%" y2="0%">
      <stop offset="0%" stop-color="#ef4444"/>
      <stop offset="50%" stop-color="#f97316"/>
      <stop offset="100%" stop-color="#fde047"/>
    </linearGradient>
  </defs>
  <!-- Perfectly Fitted Fiery Base Ring -->
  <circle cx="60" cy="60" r="49" fill="none" stroke="url(#fire_g)" stroke-width="4.5"/>
  <!-- Left Dragon Wing Spikes -->
  <path d="M11 40 Q1 55 11 70 Q5 55 13 48 Z" fill="url(#fire_g)"/>
  <path d="M15 26 Q3 40 17 50 Q9 38 17 32 Z" fill="url(#fire_g)"/>
  <!-- Right Dragon Wing Spikes -->
  <path d="M109 40 Q119 55 109 70 Q115 55 107 48 Z" fill="url(#fire_g)"/>
  <path d="M105 26 Q117 40 103 50 Q111 38 103 32 Z" fill="url(#fire_g)"/>
  <!-- Top Leaping Flames -->
  <path d="M60 3 Q68 17 64 23 Q60 15 56 23 Q52 17 60 3 Z" fill="url(#fire_g)"/>
  <path d="M45 13 Q51 23 47 27 Q43 21 45 13 Z" fill="#f97316"/>
  <path d="M75 13 Q69 23 73 27 Q77 21 75 13 Z" fill="#f97316"/>
</svg>